<?xml version="1.0" encoding="utf-8"?>
<!-- Generator: Adobe Illustrator 18.1.0, SVG Export Plug-In . SVG Version: 6.00 Build 0)  -->
<!DOCTYPE svg PUBLIC "-//W3C//DTD SVG 1.1//EN" "http://www.w3.org/Graphics/SVG/1.1/DTD/svg11.dtd">
<svg version="1.1" id="Layer_1" xmlns="http://www.w3.org/2000/svg" xmlns:xlink="http://www.w3.org/1999/xlink" x="0px" y="0px"
	 viewBox="161.7 357.6 100 82.2" enable-background="new 161.7 357.6 100 82.2" xml:space="preserve">
<desc>Created with Fabric.js 1.4.11</desc>
<g transform="translate(192.7855563408643 160.20599521539583) rotate(17.69) scale(2.05 2.05)">
	<polygon fill="#C7C8CA" points="31.8,97.5 16.8,99.8 16.5,96.3 31.8,94.9 	"/>
</g>
<g transform="translate(285.5 248) scale(1.1 1.2)">
	<path fill="#C7C8CA" d="M-56.9,122.5c-2.1-4.4-5.9-6.1-10.3-6.1c-4.4,0-8.2,1.7-10.3,6.1c-1.7,3.6,0.4,7.4,4.3,6c2.6-1,4-1.1,6-1.1
		c2,0,3.4,0,6,1.1C-57.3,129.9-55.1,126.1-56.9,122.5z"/>
</g>
<g transform="translate(276.5958203412904 310.2736539210223) rotate(360.24) scale(0.75 0.58)">
	<path fill="#C7C8CA" d="M-83.7,173l-2.7,1.7l-2.7-1.7c0,0-10.2,2.1-17.3,2.4c7.4,5.3,20,5.6,20,5.6s12.5-0.3,20-5.6
		C-73.5,175.1-83.7,173-83.7,173z"/>
	<path fill="#C7C8CA" d="M-86.4,182.6c-11.4,0-19.7-5.2-19.7-5.2c6.9,13.3,19.7,12.4,19.7,12.4s12.7,0.9,19.7-12.4
		C-66.7,177.4-75,182.6-86.4,182.6z"/>
</g>
<g transform="translate(358.3570320508244 187.73794990096923) rotate(339.52) scale(2.04 2.04) matrix(-1 0 0 1 42 0) ">
	<polygon fill="#C7C8CA" points="133.3,61.7 118.3,64 118,60.5 133.3,59.1 	"/>
</g>
<g transform="translate(187.5 290.5)">
	<path fill="#C7C8CA" d="M46.4,136.1l0.9-18c0.1-1.5-1.1-2.8-2.5-3.1l-17.6-2.3c-1.5-0.2-3.9-0.2-5.4,0L4.2,115
		c-1.5,0.2-2.6,1.6-2.5,3.1l0.9,18c-9.9-2.3-18.7-6.1-26-11c6.2,13.9,25.3,24.1,47.9,24.1s41.7-10.2,47.9-24.1
		C65.2,130.1,56.3,133.8,46.4,136.1z M3.3,136.4l3-13.6c0.3-1.5,1.8-2.7,3.3-2.9l12.2-1.1c1.5-0.1,3.9-0.1,5.4,0l12.2,1.1
		c1.5,0.1,2.9,1.4,3.3,2.9l3,13.6c-6.6,1.5-13.8,2.3-21.2,2.3S10,137.8,3.3,136.4z"/>
</g>
<g transform="translate(181.00000000000006 168) scale(0.88 0.88)">
	<path fill="#939598" d="M90.7,237.7h-6.3c-0.6-11.7-10.6-21.1-22.9-21.1s-22.3,9.4-22.8,21.1h-3.8h-3.8
		c-0.6-11.7-10.6-21.1-22.8-21.1c-12.3,0-22.3,9.4-22.9,21.1h-6.3c-0.5,0-1,0.5-1,1.1s0.5,1.1,1,1.1h6.3
		C-14,251.5-4,260.9,8.3,260.9s22.3-9.4,22.8-21.1h3.8h3.8c0.6,11.7,10.6,21.1,22.8,21.1c12.3,0,22.3-9.4,22.8-21.1h6.3
		c0.6,0,1-0.5,1-1.1C91.7,238.2,91.2,237.7,90.7,237.7z M8.3,258.8c-11.4,0-20.7-9-20.7-20s9.3-20,20.7-20s20.7,9,20.7,20
		C29,249.8,19.7,258.8,8.3,258.8z M61.5,258.8c-11.4,0-20.7-9-20.7-20s9.3-20,20.7-20s20.7,9,20.7,20
		C82.2,249.8,72.9,258.8,61.5,258.8z"/>
</g>
<ellipse transform="matrix(0.9979 -6.544531e-02 6.544531e-02 0.9979 -24.377 12.7351)" fill="#C7C8CA" cx="182.2" cy="378.4" rx="8.2" ry="2.9"/>
<ellipse transform="matrix(0.9977 6.834630e-02 -6.834630e-02 0.9977 26.4068 -15.6168)" fill="#C7C8CA" cx="241.4" cy="378.1" rx="7.9" ry="2.8"/>
</svg>
