<?xml version="1.0" encoding="utf-8"?>
<!-- Generator: Adobe Illustrator 18.1.0, SVG Export Plug-In . SVG Version: 6.00 Build 0)  -->
<!DOCTYPE svg PUBLIC "-//W3C//DTD SVG 1.1//EN" "http://www.w3.org/Graphics/SVG/1.1/DTD/svg11.dtd">
<svg version="1.1" id="Layer_1" xmlns="http://www.w3.org/2000/svg" xmlns:xlink="http://www.w3.org/1999/xlink" x="0px" y="0px"
	 viewBox="251 229.8 225.3 181" enable-background="new 251 229.8 225.3 181" xml:space="preserve">
<desc>Created with Fabric.js 1.4.11</desc>
<g transform="translate(318.5 218.5) scale(1 0.73)">
	<path fill="#C7C8CA" d="M4.4,71.4C-3.1,65.7-16,63-27.7,71.8l8.2,0.8c0,0-6.6,1.6-10.5,6.3l8.6-0.3c0,0-5.4,3.6-8,6.9
		c0,0,15.6-3.1,34.2-1.4c0,0-0.9-3.4-8.2-5.2c0,0,3-1.6,9.3-0.9c0,0-2.7-3.9-9.2-5.4C-3.2,72.5-0.2,71.2,4.4,71.4z"/>
</g>
<g transform="translate(360.5 249)">
	<path fill="#C7C8CA" d="M28.3,65.1C22.5,53.1,12,48.3,0,48.3s-22.5,4.8-28.3,16.8c-4.8,10,1.2,20.5,11.8,16.4
		c7.1-2.7,11-2.9,16.5-2.9s9.4,0.1,16.5,2.9C27.1,85.6,33.2,75.1,28.3,65.1z"/>
</g>
<g transform="translate(347.5 309.6766283524905) scale(0.7 0.5)">
	<path fill="#C7C8CA" d="M-42.9,96.6c28,39.5,91.5,40.1,120,0C51,107-16.8,107-42.9,96.6z"/>
	<polygon fill="#FFFFFF" points="16.2,116.6 8,116.6 6.9,106.5 16.2,106.5 	"/>
	<polygon fill="#FFFFFF" points="26.2,116.6 18,116.6 18,106.5 27.3,106.5 	"/>
</g>
<g transform="translate(311.5 174) rotate(12.93) scale(1.55 1.97)">
	<polygon fill="#C7C8CA" points="30.1,34.5 -11,40.9 -11.9,31.2 30.1,27.3 	"/>
</g>
<g transform="translate(290.5 284.7107843137255) scale(0.77 0.77)">
	<path fill="#C7C8CA" d="M153.5,127.5l2.4-49.7c0.2-4.1-3-7.8-7-8.4l-48.5-6.3c-4.1-0.5-10.7-0.5-14.8,0l-48.5,6.3
		c-4.1,0.5-7.2,4.3-7,8.4l2.4,49.7C5.3,121.2-19.1,110.8-39,97.3c17.1,38.4,69.7,66.4,132,66.4s114.9-28,132-66.4
		C205.1,110.8,180.7,121.2,153.5,127.5z M34.7,128.1L43,90.7c0.9-4,4.9-7.5,9-7.9l33.6-2.9c4.1-0.3,10.8-0.3,14.8,0l33.6,2.9
		c4.1,0.3,8.1,3.9,9,7.9l8.3,37.4c-18.3,4.1-37.9,6.3-58.3,6.3S53.1,132.1,34.7,128.1z"/>
</g>
<g transform="translate(416.5 187) rotate(349.1) scale(1.47 1.78) matrix(-1 0 0 1 42 0) ">
	<polygon fill="#C7C8CA" points="68.3,30.6 27.2,37 26.3,27.3 68.3,23.4 	"/>
</g>
<g transform="translate(430.5 218.5) scale(1 0.73) matrix(-1 0 0 1 36 0) ">
	<path fill="#C7C8CA" d="M64.4,71.4C56.9,65.7,44,63,32.3,71.8l8.2,0.8c0,0-6.6,1.6-10.5,6.3l8.6-0.3c0,0-5.4,3.6-8,6.9
		c0,0,15.6-3.1,34.2-1.4c0,0-0.9-3.4-8.2-5.2c0,0,3-1.6,9.3-0.9c0,0-2.7-3.9-9.2-5.4C56.8,72.5,59.8,71.2,64.4,71.4z"/>
</g>
<g transform="translate(281 189.70731707317077) scale(0.72 0.71)">
	<path fill="#939598" d="M268.5,126.1h-17.4c-1.6-32.3-29.2-58.1-63-58.1s-61.4,25.8-62.9,58.1h-10.4h-10.4
		C102.8,93.8,75.2,68,41.5,68c-33.8,0-61.4,25.8-63,58.1h-17.4c-1.5,0-2.8,1.3-2.8,2.9c0,1.6,1.3,2.9,2.8,2.9h17.4
		c1.6,32.3,29.2,58.1,63,58.1s61.4-25.8,62.9-58.1h10.4h10.4c1.6,32.3,29.2,58.1,62.9,58.1c33.8,0,61.4-25.8,62.9-58.1h17.4
		c1.6,0,2.8-1.3,2.8-2.9C271.3,127.4,270,126.1,268.5,126.1z M41.5,184.2c-31.5,0-57.1-24.8-57.1-55.2S10,73.8,41.5,73.8
		S98.6,98.6,98.6,129C98.5,159.4,72.9,184.2,41.5,184.2z M188.1,184.2c-31.5,0-57.1-24.8-57.1-55.2s25.6-55.2,57.1-55.2
		s57.1,24.8,57.1,55.2C245.2,159.4,219.6,184.2,188.1,184.2z"/>
</g>
</svg>
